<svg width="20" height="20" viewBox="0 0 20 20" xmlns="http://www.w3.org/2000/svg">
<path id="close" fill-rule="evenodd" clip-rule="evenodd" d="M0.389188 0.85776C-0.128686 1.37563 -0.128685 2.21527 0.389188 2.73314L7.65565 9.99961L0.388405 17.2669C-0.129468 17.7847 -0.129468 18.6244 0.388405 19.1422L0.85725 19.6111C1.37512 20.129 2.21476 20.129 2.73263 19.6111L9.99988 12.3438L17.2676 19.6116C17.7855 20.1295 18.6251 20.1295 19.143 19.6116L19.6119 19.1427C20.1297 18.6249 20.1297 17.7852 19.6119 17.2674L12.3441 9.99961L19.6111 2.73263C20.129 2.21476 20.129 1.37512 19.6111 0.85725L19.1422 0.388405C18.6244 -0.129468 17.7847 -0.129468 17.2669 0.388406L9.99988 7.65538L2.73342 0.388915C2.21554 -0.128958 1.37591 -0.128958 0.858033 0.388915L0.389188 0.85776Z" />
</svg>
