<svg width="24" height="24" viewBox="0 0 24 24" fill="none" xmlns="http://www.w3.org/2000/svg">
<g id="adjust-horizontal-alt">
<path id="Vector" d="M24 5.60039L10.4 5.60039M10.4 5.60039C10.4 3.83308 8.96731 2.40039 7.2 2.40039C5.43269 2.40039 4 3.83308 4 5.60039M10.4 5.60039C10.4 7.3677 8.96731 8.80039 7.2 8.80039C5.43269 8.80039 4 7.3677 4 5.60039M4 5.60039L0 5.60039M24 18.4004L20 18.4004M20 18.4004C20 16.6331 18.5673 15.2004 16.8 15.2004C15.0327 15.2004 13.6 16.6331 13.6 18.4004M20 18.4004C20 20.1677 18.5673 21.6004 16.8 21.6004C15.0327 21.6004 13.6 20.1677 13.6 18.4004M13.6 18.4004H2.03434e-07" />
</g>
</svg>
